# xmcd CD database file
#
# Track frame offsets:
#	150
#	33228
#	66561
#	102963
#	144064
#	185495
#
# Disc length: 2995 seconds
#
# Revision: 0
# Processed by: cddbd v1.5.2PL0 Copyright (c) Steve Scherf et al.
# Submitted via: CDex 1.70beta2
#
DISCID=4d0bb106
DTITLE=Arne Torvik - Northwestern Sounds
DYEAR=2015
DGENRE=Jazz
TTITLE0=Heart
TTITLE1=Leaving
TTITLE2=One More
TTITLE3=Oslo 8
TTITLE4=Orsta
TTITLE5=Day and Night
EXTD=YEAR: 2015
EXTT0=
EXTT1=
EXTT2=
EXTT3=
EXTT4=
EXTT5=
PLAYORDER=
